<svg xmlns="http://www.w3.org/2000/svg" viewBox="0 0 70 70"><title>Tour</title><g id="Layer_2" data-name="Layer 2"><g id="Layer_1-2" data-name="Layer 1"><path d="M14,21A10.5,10.5,0,1,0,3.5,10.5,10.51,10.51,0,0,0,14,21ZM14,3.5a7,7,0,1,1-7,7A7,7,0,0,1,14,3.5Zm52.5,14h-35A3.5,3.5,0,0,0,28,21v2.67l3.5,1.75V21h35V49h-35V44.84L28,44v5a3.5,3.5,0,0,0,3.5,3.5H45.91L37,67.35a1.75,1.75,0,0,0,3,1.8l7.25-12.08V68.25a1.75,1.75,0,0,0,3.5,0V57.06L58,69.14a1.75,1.75,0,0,0,1.5.85,1.72,1.72,0,0,0,.9-.25,1.75,1.75,0,0,0,.6-2.4L52.09,52.5H66.5A3.5,3.5,0,0,0,70,49V21A3.5,3.5,0,0,0,66.5,17.5ZM35,42a3.5,3.5,0,0,0,3.5-3.5V35.82L60,29.68a1.75,1.75,0,0,0-1-3.36l-21.6,6.17a3.51,3.51,0,0,0-.86-.62l-14-7A3.51,3.51,0,0,0,21,24.5H7a3.5,3.5,0,0,0-3.44,2.87L.06,46.62A3.5,3.5,0,0,0,3.5,50.75H5.74L7,66.77A3.5,3.5,0,0,0,10.5,70h7A3.5,3.5,0,0,0,21,66.88L24,39.37l10.12,2.53A3.48,3.48,0,0,0,35,42ZM21,35,17.5,66.5h-7L9,47.25H3.5L7,28h5.25V38.65a1.75,1.75,0,0,0,3.5,0V28H21l14,7v3.5Z"/></g></g></svg>