<svg xmlns="http://www.w3.org/2000/svg" viewBox="0 0 70 49"><title>Inbox</title><g id="Layer_2" data-name="Layer 2"><g id="Layer_1-2" data-name="Layer 1"><path d="M70,5a2.25,2.25,0,0,0-.17-1.27C69.24,1.27,67.49,0,64.53,0H7.66C5.05,0,2.25,1,.87,2.89a2.21,2.21,0,0,0-.34.32A2.24,2.24,0,0,0,0,5a4.78,4.78,0,0,0,0,.55V41.2C0,44.9,4,49,7.66,49H64.53C68.16,49,70,44.9,70,41.2V5.57C70,5.37,70,5.2,70,5ZM7.66,4.46h56.9L35,28.44,5.56,4.55A12,12,0,0,1,7.66,4.46ZM64.53,44.55H7.66c-1.21,0-3.28-2.11-3.28-3.34V9.3L33.57,33.07a2.16,2.16,0,0,0,2.86,0L65.63,9.3V41.2C65.63,42.43,65.74,44.55,64.53,44.55Z"/></g></g></svg>