<svg xmlns="http://www.w3.org/2000/svg" viewBox="0 0 70 70"><title>clock</title><g id="Layer_2" data-name="Layer 2"><g id="Layer_1-2" data-name="Layer 1"><path d="M67.21,21.37A34.29,34.29,0,0,0,48.57,2.8,34.37,34.37,0,0,0,34.94,0,34,34,0,0,0,21.36,2.8,34.43,34.43,0,0,0,2.75,21.37a35,35,0,0,0,0,27.23,34.5,34.5,0,0,0,18.6,18.61A34,34,0,0,0,34.94,70a34.37,34.37,0,0,0,13.62-2.79A34.39,34.39,0,0,0,67.21,48.59a34.55,34.55,0,0,0,0-27.23ZM61.62,50.43A30.68,30.68,0,0,1,50.37,61.65a30.12,30.12,0,0,1-15.42,4.14A29.61,29.61,0,0,1,23,63.34a31.33,31.33,0,0,1-9.8-6.55,31.1,31.1,0,0,1-6.54-9.84A30.12,30.12,0,0,1,4.25,35,30.12,30.12,0,0,1,8.34,19.57,30.72,30.72,0,0,1,19.56,8.35,29.9,29.9,0,0,1,34.94,4.21,30.14,30.14,0,0,1,50.37,8.35,30.84,30.84,0,0,1,61.62,19.57,30,30,0,0,1,65.75,35a30.23,30.23,0,0,1-4.13,15.47Zm0,0"/><path d="M37.16,34.66V14.82a2.21,2.21,0,0,0-2.22-2.15,2.16,2.16,0,0,0-2.1,2.15V35a1.76,1.76,0,0,1,.08.3A2,2,0,0,0,33.49,37L44.93,48.44a2.18,2.18,0,0,0,2.95,0,2.06,2.06,0,0,0,0-3Zm0,0"/></g></g></svg>