<svg xmlns="http://www.w3.org/2000/svg" viewBox="0 0 70 70"><title>Ayuda</title><g id="Layer_2" data-name="Layer 2"><g id="Layer_1-2" data-name="Layer 1"><path d="M35,0A35,35,0,1,0,70,35,35,35,0,0,0,35,0Zm0,65.41A30.41,30.41,0,1,1,65.41,35,30.44,30.44,0,0,1,35,65.41ZM35,16A11.18,11.18,0,0,0,23.84,27.16a2.3,2.3,0,1,0,4.59,0A6.57,6.57,0,1,1,35,33.73,2.3,2.3,0,0,0,32.7,36v8a2.3,2.3,0,1,0,4.59,0V38.08A11.16,11.16,0,0,0,35,16ZM35,47.9a2.88,2.88,0,1,0,2.88,2.88A2.88,2.88,0,0,0,35,47.9Z"/></g></g></svg>