<svg xmlns="http://www.w3.org/2000/svg" viewBox="0 0 70 70"><title>Call</title><g id="Layer_2" data-name="Layer 2"><g id="Layer_1-2" data-name="Layer 1"><path d="M13.69,4.24l.18,0c1.23,1.79,7.82,11.79,9,13.66a3.19,3.19,0,0,1-.44,1.41c-.4.76-1.64,3-3.4,6.08l-1.37,2.41,1.59,2.27a87.79,87.79,0,0,0,9.59,11,87.39,87.39,0,0,0,10.94,9.63l2.27,1.6,2.41-1.38c2.33-1.34,5.15-2.94,6.07-3.42a3.08,3.08,0,0,1,1.38-.42H52c1.67,1.05,11.87,7.84,13.66,9.08a1.49,1.49,0,0,1-.33,1C62.53,61,58.6,65,57.06,65.62c-8.19-.38-19.68-7.6-32.4-20.35S4.75,21,4.37,12.82c.55-1.55,4.56-5.51,8.36-8.27a1.73,1.73,0,0,1,1-.31m0-4.24a6.06,6.06,0,0,0-3.45,1.09C10.14,1.16-.14,8.5,0,12.74c.38,11.93,11.94,26,21.58,35.61S45.2,69.62,57.14,70h.1c4.18,0,11.53-10.17,11.61-10.27,1.93-2.76,1.23-5.81-.53-7-1.07-.75-12.76-8.55-14.19-9.43a4.21,4.21,0,0,0-2.21-.57,7.44,7.44,0,0,0-3.41.92c-1.13.59-4.53,2.54-6.2,3.5A83,83,0,0,1,31.94,38a83.46,83.46,0,0,1-9.11-10.39c1-1.67,2.89-5.09,3.48-6.21,1.12-2.12,1.24-4.24.34-5.67s-8.59-13-9.39-14.09A4.32,4.32,0,0,0,13.69,0Z"/></g></g></svg>