<svg xmlns="http://www.w3.org/2000/svg" viewBox="0 0 70 70"><title>User</title><g id="Layer_2" data-name="Layer 2"><g id="Layer_1-2" data-name="Layer 1"><path d="M35,4.38c7.43,0,15.31,6.26,15.31,10.93V26.25c0,4.21-1.75,12.26-6.45,16a4.38,4.38,0,0,0,.88,7.42l19,9a2.44,2.44,0,0,1,1.83,2.69v4.27H4.38V61.18A2.64,2.64,0,0,1,6.2,58.66l19.22-9.07a4.38,4.38,0,0,0,.91-7.39c-4.55-3.65-6.67-11.68-6.67-15.95V15.31c0-4.57,8-10.93,15.33-10.93M35,0C25.33,0,15.29,8.07,15.29,15.31V26.25c0,4.78,2.18,14.45,8.3,19.36L4.37,54.68S0,56.63,0,59.06v6.57A4.37,4.37,0,0,0,4.37,70H65.62A4.37,4.37,0,0,0,70,65.62V59.06c0-2.57-4.38-4.37-4.38-4.37l-19-9c6.06-4.77,8.12-14.15,8.12-19.4V15.31C54.69,8.07,44.66,0,35,0Z"/></g></g></svg>